# xmcd CD database file
#
# Track frame offsets:
#	150
#	13947
#	26989
#	42777
#	52751
#	64923
#	79800
#	92137
#	106764
#	119072
#	130659
#
# Disc length: 2192 seconds
#
# Revision: 0
# Processed by: cddbd v1.5.2PL0 Copyright (c) Steve Scherf et al.
# Submitted via: CDex 1.51
#
DISCID=8f088e0b
DTITLE=Ryan Adams and The Cardinals - III-IV [CD2 - IV)
DYEAR=2010
DGENRE=Alternative Country
TTITLE0=No
TTITLE1=Numbers
TTITLE2=Gracie
TTITLE3=Icebreaker
TTITLE4=Sewers at the Bottom of the Wishing Well
TTITLE5=Typecast
TTITLE6=Star Wars
TTITLE7=My Favorite Song
TTITLE8=P.S.
TTITLE9=Death and Rats
TTITLE10=Kill the Lights
EXTD=YEAR: 2010
EXTT0=
EXTT1=
EXTT2=
EXTT3=
EXTT4=
EXTT5=
EXTT6=
EXTT7=
EXTT8=
EXTT9=
EXTT10=
PLAYORDER=
